<svg id="visual" viewBox="0 0 900 600" width="900" height="600" xmlns="http://www.w3.org/2000/svg" xmlns:xlink="http://www.w3.org/1999/xlink" version="1.1"><rect x="0" y="0" width="900" height="600" fill="#000000"></rect><defs><linearGradient id="grad1_0" x1="33.3%" y1="0%" x2="100%" y2="100%"><stop offset="20%" stop-color="#000000" stop-opacity="1"></stop><stop offset="80%" stop-color="#000000" stop-opacity="1"></stop></linearGradient></defs><defs><linearGradient id="grad2_0" x1="0%" y1="0%" x2="66.7%" y2="100%"><stop offset="20%" stop-color="#000000" stop-opacity="1"></stop><stop offset="80%" stop-color="#000000" stop-opacity="1"></stop></linearGradient></defs><g transform="translate(900, 0)"><path d="M0 486.7C-66.3 474.7 -132.5 462.7 -176.8 426.8C-221.1 390.9 -243.4 331.2 -291.3 291.3C-339.3 251.5 -412.9 231.5 -449.7 186.3C-486.5 141 -486.6 70.5 -486.7 0L0 0Z" fill="#0055ff"></path></g><g transform="translate(0, 600)"><path d="M0 -486.7C70.3 -486.1 140.5 -485.4 186.3 -449.7C232 -414 253.2 -343.3 297 -297C340.8 -250.7 407.1 -228.7 442.5 -183.3C477.9 -137.9 482.3 -68.9 486.7 0L0 0Z" fill="#0055ff"></path></g></svg>